<svg xmlns="http://www.w3.org/2000/svg" viewBox="0 0 250.37 250.37"><defs><style>.cls-1{fill:none;stroke:#9b4f9f;stroke-miterlimit:10;stroke-width:4px;}.cls-2{fill:#9b4f9f;}</style></defs><g id="Layer_2" data-name="Layer 2"><g id="Layer_1-2" data-name="Layer 1"><circle class="cls-1" cx="125.18" cy="125.18" r="123.18"/><path class="cls-2" d="M54.94,104.81v3.57a7.32,7.32,0,0,0-1.66-.7,5.73,5.73,0,0,0-1.63-.22,4,4,0,0,0-2.94,1.16,3.9,3.9,0,0,0-1.16,2.9,3.75,3.75,0,0,0,1.16,2.88,4.11,4.11,0,0,0,3,1.11,6.93,6.93,0,0,0,1.65-.19,6.2,6.2,0,0,0,1.61-.71v3.47a9.86,9.86,0,0,1-4.23,1A7.79,7.79,0,0,1,45.05,117a7.14,7.14,0,0,1-2.17-5.4,7.39,7.39,0,0,1,2.22-5.46,7.66,7.66,0,0,1,5.58-2.2,10.21,10.21,0,0,1,2,.22A13.58,13.58,0,0,1,54.94,104.81Z"/><path class="cls-2" d="M57.21,118.72V99.25h4.38v6.94a5.76,5.76,0,0,1,4.42-2.3,4.61,4.61,0,0,1,3.52,1.44,5.22,5.22,0,0,1,1.34,3.72v9.67H66.5v-8a5.49,5.49,0,0,0,0-.58c0-.19,0-.46-.1-.82a2,2,0,0,0-.73-1.19,2.2,2.2,0,0,0-1.38-.43,3.19,3.19,0,0,0-2.67,1.75v9.29Z"/><path class="cls-2" d="M87.05,112.21H77.62a3.87,3.87,0,0,0,4.11,3.59,9.67,9.67,0,0,0,4.91-1.7v3.05A10.8,10.8,0,0,1,80.76,119,7.82,7.82,0,0,1,75.13,106a6.8,6.8,0,0,1,5.14-2.1,6.28,6.28,0,0,1,5,2.06,8.32,8.32,0,0,1,1.81,5.67Zm-6.51-5.29a2.51,2.51,0,0,0-1.83.73,3.56,3.56,0,0,0-1,2h5.48a3.32,3.32,0,0,0-.83-2A2.43,2.43,0,0,0,80.54,106.92Z"/><path class="cls-2" d="M100.87,104.81v3.57a7.51,7.51,0,0,0-1.66-.7,5.78,5.78,0,0,0-1.63-.22,4,4,0,0,0-3,1.16,3.94,3.94,0,0,0-1.16,2.9,3.79,3.79,0,0,0,1.16,2.88,4.14,4.14,0,0,0,3,1.11,6.8,6.8,0,0,0,1.65-.19,6.11,6.11,0,0,0,1.62-.71v3.47a9.9,9.9,0,0,1-4.24,1A7.77,7.77,0,0,1,91,117a7.15,7.15,0,0,1-2.18-5.4A7.36,7.36,0,0,1,91,106.09a7.63,7.63,0,0,1,5.58-2.2,10.28,10.28,0,0,1,2,.22A13.89,13.89,0,0,1,100.87,104.81Z"/><path class="cls-2" d="M103.14,118.72V99.25h4.37v11.18l5.28-6.18H118l-5.89,6.58,6.65,7.89h-5.49l-5.75-7.24v7.24Z"/><path class="cls-2" d="M117.69,111.48a7.28,7.28,0,0,1,2.14-5.48,8.44,8.44,0,0,1,11.11,0,8.1,8.1,0,0,1,0,10.93,8.4,8.4,0,0,1-11.09,0A7.27,7.27,0,0,1,117.69,111.48Zm7.7-4.21a2.79,2.79,0,0,0-2.32,1.16,4.85,4.85,0,0,0-.9,3,4.74,4.74,0,0,0,.9,3,2.79,2.79,0,0,0,2.32,1.16,2.82,2.82,0,0,0,2.33-1.15,4.68,4.68,0,0,0,.91-3,4.82,4.82,0,0,0-.91-3A2.81,2.81,0,0,0,125.39,107.27Z"/><path class="cls-2" d="M144.66,116.56a8.35,8.35,0,0,1-2.24,1.91,4.89,4.89,0,0,1-2.37.57,4.8,4.8,0,0,1-2.61-.73,4.31,4.31,0,0,1-1.71-1.91,6.35,6.35,0,0,1-.41-2.43v-9.72h4.38v8.39c0,1.79.7,2.68,2.1,2.68a3.65,3.65,0,0,0,2.86-1.84v-9.23H149v14.47h-4.38Z"/><path class="cls-2" d="M150.28,107.24v-3h2.08v-3.43h4.37v3.43h4.54v3h-4.54v6a5.1,5.1,0,0,0,.12,1.18,1.53,1.53,0,0,0,.7.88,2.41,2.41,0,0,0,1.36.38,4.14,4.14,0,0,0,2.36-.89v3.45l-.81.3a10.81,10.81,0,0,1-1.49.39,8.24,8.24,0,0,1-1.56.15,6,6,0,0,1-2.95-.69,4.1,4.1,0,0,1-1.8-1.93,5.76,5.76,0,0,1-.3-2.08v-7.1Z"/><path class="cls-2" d="M170.48,118.72V104.25h4.37v1.91a5.92,5.92,0,0,1,4.44-2.27,4.43,4.43,0,0,1,4.26,2.79,5.56,5.56,0,0,1,4.72-2.79,4.79,4.79,0,0,1,3.63,1.4,5.23,5.23,0,0,1,1.34,3.79v9.64h-4.38v-8.34q0-2.76-2.16-2.76a3.56,3.56,0,0,0-2.67,1.65v9.45h-4.37v-8.15a8.31,8.31,0,0,0-.11-1.45,1.78,1.78,0,0,0-.68-1,1.89,1.89,0,0,0-1.24-.46,3.77,3.77,0,0,0-2.78,1.63v9.47Z"/><path class="cls-2" d="M194,104.25h4.77l2.49,6.13a3.86,3.86,0,0,1,.28.87,4.83,4.83,0,0,1,.1,1,7.57,7.57,0,0,1,.37-1.91l2.54-6.13H209l-9.69,21.19h-4.67l4.56-9.53Z"/><path class="cls-2" d="M68.77,157.84V136.65h4.37v1.16A6.46,6.46,0,0,1,75,136.65a5.53,5.53,0,0,1,2.06-.36,5.88,5.88,0,0,1,4.63,2.11,7.83,7.83,0,0,1,1.83,5.32,7.92,7.92,0,0,1-2,5.58,6.67,6.67,0,0,1-5.12,2.14,6.3,6.3,0,0,1-1.69-.19,6.86,6.86,0,0,1-1.58-.7v7.29Zm4.37-17.28v6.91a4.24,4.24,0,0,0,2.25.68A3.33,3.33,0,0,0,78,147a4.53,4.53,0,0,0,1-3,4.61,4.61,0,0,0-1-3.05,3.27,3.27,0,0,0-2.61-1.19A3.62,3.62,0,0,0,73.14,140.56Z"/><path class="cls-2" d="M85.24,143.88a7.31,7.31,0,0,1,2.13-5.48,7.66,7.66,0,0,1,5.56-2.08,7.57,7.57,0,0,1,5.55,2.09,8.09,8.09,0,0,1,0,10.93,8.41,8.41,0,0,1-11.1,0A7.3,7.3,0,0,1,85.24,143.88Zm7.69-4.21a2.81,2.81,0,0,0-2.32,1.16,4.91,4.91,0,0,0-.89,3,4.8,4.8,0,0,0,.89,3,2.93,2.93,0,0,0,4.66,0,4.73,4.73,0,0,0,.9-3,4.88,4.88,0,0,0-.9-3A2.82,2.82,0,0,0,92.93,139.67Z"/><path class="cls-2" d="M102.87,151.12V136.65h4.37v2.94a10.3,10.3,0,0,1,2-2.51,3.13,3.13,0,0,1,2-.79,5.52,5.52,0,0,1,3.15,1.19l-1.64,4.13a3.91,3.91,0,0,0-2.38-1,2.73,2.73,0,0,0-2.19,1.35,5.13,5.13,0,0,0-1,3.05v6.13Z"/><path class="cls-2" d="M114,139.64v-3h2.08v-3.43h4.38v3.43H125v3h-4.53v6a5.1,5.1,0,0,0,.12,1.18,1.48,1.48,0,0,0,.69.88,2.41,2.41,0,0,0,1.36.38,4.14,4.14,0,0,0,2.36-.89v3.45l-.81.3a11,11,0,0,1-1.48.39,8.35,8.35,0,0,1-1.57.15,6,6,0,0,1-2.94-.69,4.12,4.12,0,0,1-1.81-1.93,5.76,5.76,0,0,1-.3-2.08v-7.1Z"/><path class="cls-2" d="M125,139.72v-3.07h2v-.25a4.74,4.74,0,0,1,1.57-3.67,5.84,5.84,0,0,1,4.09-1.43,11.68,11.68,0,0,1,1.67.11,19.36,19.36,0,0,1,2,.43v2.81a7.71,7.71,0,0,0-2.44-.43,2.89,2.89,0,0,0-1.88.54,1.89,1.89,0,0,0-.65,1.53v.36h3.56v3.07h-3.56v11.4H127v-11.4Z"/><path class="cls-2" d="M135.24,143.88a7.31,7.31,0,0,1,2.13-5.48,7.68,7.68,0,0,1,5.57-2.08,7.56,7.56,0,0,1,5.54,2.09,8.09,8.09,0,0,1,0,10.93,7.55,7.55,0,0,1-5.53,2.1,7.64,7.64,0,0,1-5.57-2.08A7.3,7.3,0,0,1,135.24,143.88Zm7.7-4.21a2.82,2.82,0,0,0-2.33,1.16,4.91,4.91,0,0,0-.89,3,4.8,4.8,0,0,0,.89,3,2.93,2.93,0,0,0,4.66,0,4.73,4.73,0,0,0,.91-3,4.88,4.88,0,0,0-.91-3A2.81,2.81,0,0,0,142.94,139.67Z"/><path class="cls-2" d="M152.87,151.12V131.65h4.38v19.47Z"/><path class="cls-2" d="M160,133.57a2.72,2.72,0,0,1,.67-1.87,2.23,2.23,0,0,1,3.32,0,2.56,2.56,0,0,1,.68,1.81,2,2,0,0,1-.68,1.48,2.32,2.32,0,0,1-1.65.62,2.49,2.49,0,0,1-1.66-.58A1.79,1.79,0,0,1,160,133.57Zm.1,17.55v-14.5h4.38v14.5Z"/><path class="cls-2" d="M166.72,143.88a7.28,7.28,0,0,1,2.14-5.48,8.44,8.44,0,0,1,11.11,0,8.1,8.1,0,0,1,0,10.93,8.4,8.4,0,0,1-11.09,0A7.27,7.27,0,0,1,166.72,143.88Zm7.7-4.21a2.79,2.79,0,0,0-2.32,1.16,4.85,4.85,0,0,0-.9,3,4.74,4.74,0,0,0,.9,3,2.79,2.79,0,0,0,2.32,1.16,2.82,2.82,0,0,0,2.33-1.15,4.68,4.68,0,0,0,.91-3,4.82,4.82,0,0,0-.91-3A2.81,2.81,0,0,0,174.42,139.67Z"/></g></g></svg>