<svg xmlns="http://www.w3.org/2000/svg" viewBox="0 0 171.46 170.6"><defs><style>.cls-1{fill:#9c509f;stroke:#9c509f;stroke-miterlimit:10;stroke-width:4px;}.cls-2{fill:#fcfaf0;}</style></defs><g id="Layer_2" data-name="Layer 2"><g id="Layer_1-2" data-name="Layer 1"><ellipse class="cls-1" cx="85.73" cy="85.3" rx="83.73" ry="83.3"/><path class="cls-2" d="M38,71.52v2.41a5.68,5.68,0,0,0-1.13-.47,4,4,0,0,0-1.11-.15,2.68,2.68,0,0,0-2,.79,2.62,2.62,0,0,0-.79,2,2.55,2.55,0,0,0,.79,2,2.8,2.8,0,0,0,2,.74,4.81,4.81,0,0,0,1.12-.12,4.18,4.18,0,0,0,1.1-.48v2.34a6.66,6.66,0,0,1-2.88.66,5.36,5.36,0,0,1-3.85-1.42,4.84,4.84,0,0,1-1.48-3.65,5,5,0,0,1,1.52-3.69,5.2,5.2,0,0,1,3.79-1.49,6.57,6.57,0,0,1,1.39.15A8.89,8.89,0,0,1,38,71.52Z"/><path class="cls-2" d="M39.53,80.93V67.76h3v4.69a4,4,0,0,1,3-1.55,3.16,3.16,0,0,1,2.39,1,3.54,3.54,0,0,1,.92,2.52v6.54h-3V75.5a2.55,2.55,0,0,0,0-.39c0-.13,0-.31-.07-.56a1.3,1.3,0,0,0-.5-.8,1.49,1.49,0,0,0-.93-.29,2.18,2.18,0,0,0-1.82,1.19v6.28Z"/><path class="cls-2" d="M59.81,76.53H53.4a2.83,2.83,0,0,0,.88,1.78,2.79,2.79,0,0,0,1.91.64,6.6,6.6,0,0,0,3.34-1.15v2.07a7.37,7.37,0,0,1-4,1.28A4.91,4.91,0,0,1,50.34,76a5,5,0,0,1,1.37-3.66A4.61,4.61,0,0,1,55.2,70.9a4.31,4.31,0,0,1,3.38,1.39,5.58,5.58,0,0,1,1.23,3.83ZM55.39,73a1.73,1.73,0,0,0-1.25.49,2.48,2.48,0,0,0-.68,1.35h3.72a2.18,2.18,0,0,0-.56-1.36A1.63,1.63,0,0,0,55.39,73Z"/><path class="cls-2" d="M69.2,71.52v2.41a5.62,5.62,0,0,0-1.12-.47A4,4,0,0,0,67,73.31a2.68,2.68,0,0,0-2,.79,2.62,2.62,0,0,0-.79,2A2.55,2.55,0,0,0,65,78a2.77,2.77,0,0,0,2,.74,4.75,4.75,0,0,0,1.12-.12,4,4,0,0,0,1.1-.48v2.34a6.66,6.66,0,0,1-2.88.66,5.34,5.34,0,0,1-3.84-1.42A4.81,4.81,0,0,1,61,76.08a5,5,0,0,1,1.52-3.69A5.17,5.17,0,0,1,66.3,70.9a6.66,6.66,0,0,1,1.4.15A8.8,8.8,0,0,1,69.2,71.52Z"/><path class="cls-2" d="M70.75,80.93V67.76h3v7.56l3.59-4.18h3.53l-4,4.46,4.51,5.33H77.63L73.72,76v4.9Z"/><path class="cls-2" d="M80.64,76a4.9,4.9,0,0,1,1.45-3.7,5.74,5.74,0,0,1,7.55,0,5.43,5.43,0,0,1,0,7.38,5.71,5.71,0,0,1-7.54,0A4.92,4.92,0,0,1,80.64,76Zm5.23-2.84a1.9,1.9,0,0,0-1.58.78A3.3,3.3,0,0,0,83.68,76a3.25,3.25,0,0,0,.61,2,1.9,1.9,0,0,0,1.58.78,1.92,1.92,0,0,0,1.59-.77,3.2,3.2,0,0,0,.61-2,3.25,3.25,0,0,0-.61-2A1.92,1.92,0,0,0,85.87,73.19Z"/><path class="cls-2" d="M99,79.47a5.79,5.79,0,0,1-1.52,1.29,3.35,3.35,0,0,1-1.62.39,3.29,3.29,0,0,1-1.77-.5,2.94,2.94,0,0,1-1.16-1.29,4.18,4.18,0,0,1-.28-1.65V71.14h3v5.68c0,1.2.48,1.81,1.44,1.81A2.49,2.49,0,0,0,99,77.38V71.14h3v9.79H99Z"/><path class="cls-2" d="M102.79,73.17v-2h1.41V68.82h3v2.32h3.09v2h-3.09v4a3.07,3.07,0,0,0,.09.79,1,1,0,0,0,.47.6,1.63,1.63,0,0,0,.92.25,2.83,2.83,0,0,0,1.61-.6v2.34l-.55.2a7.86,7.86,0,0,1-1,.27,6.46,6.46,0,0,1-1.07.1,4.11,4.11,0,0,1-2-.47,2.83,2.83,0,0,1-1.23-1.31,4,4,0,0,1-.2-1.4v-4.8Z"/><path class="cls-2" d="M116.52,80.93V71.14h3v1.3a4,4,0,0,1,3-1.54,3,3,0,0,1,2.89,1.88,3.81,3.81,0,0,1,3.21-1.88,3.31,3.31,0,0,1,2.47.94,3.58,3.58,0,0,1,.91,2.57v6.52h-3V75.28q0-1.86-1.47-1.86a2.41,2.41,0,0,0-1.81,1.12v6.39h-3V75.42a5.3,5.3,0,0,0-.08-1,1.21,1.21,0,0,0-.46-.71,1.34,1.34,0,0,0-.84-.31,2.57,2.57,0,0,0-1.89,1.1v6.41Z"/><path class="cls-2" d="M132.48,71.14h3.25l1.69,4.14a3,3,0,0,1,.19.6,3.77,3.77,0,0,1,.07.7,5.1,5.1,0,0,1,.25-1.3l1.73-4.14h3.06l-6.59,14.33H133l3.1-6.44Z"/><path class="cls-2" d="M47.38,107.38V93.05h3v.78a4.42,4.42,0,0,1,1.25-.78,3.84,3.84,0,0,1,1.4-.24,4,4,0,0,1,3.15,1.43,5.24,5.24,0,0,1,1.24,3.59,5.33,5.33,0,0,1-1.34,3.77,4.53,4.53,0,0,1-3.48,1.45,4.66,4.66,0,0,1-1.15-.12,5,5,0,0,1-1.07-.48v4.93Zm3-11.68v4.67a2.82,2.82,0,0,0,1.53.46,2.26,2.26,0,0,0,1.79-.79,3,3,0,0,0,.68-2,3.13,3.13,0,0,0-.68-2.07,2.24,2.24,0,0,0-1.77-.8A2.44,2.44,0,0,0,50.36,95.7Z"/><path class="cls-2" d="M58.58,97.94A4.9,4.9,0,0,1,60,94.24a5.2,5.2,0,0,1,3.78-1.41,5.13,5.13,0,0,1,3.77,1.42,5.43,5.43,0,0,1,0,7.38,5.14,5.14,0,0,1-3.76,1.42,5.2,5.2,0,0,1-3.78-1.4A4.92,4.92,0,0,1,58.58,97.94Zm5.23-2.85a1.91,1.91,0,0,0-1.58.79,3.3,3.3,0,0,0-.6,2.06,3.24,3.24,0,0,0,.6,2,1.9,1.9,0,0,0,1.58.78A1.92,1.92,0,0,0,65.4,100a3.2,3.2,0,0,0,.61-2,3.25,3.25,0,0,0-.61-2A1.93,1.93,0,0,0,63.81,95.09Z"/><path class="cls-2" d="M70.56,102.84V93.05h3v2a6.82,6.82,0,0,1,1.38-1.7,2.16,2.16,0,0,1,1.35-.53,3.78,3.78,0,0,1,2.15.81L77.3,96.41a2.68,2.68,0,0,0-1.62-.69,1.84,1.84,0,0,0-1.48.91,3.42,3.42,0,0,0-.66,2.06v4.15Z"/><path class="cls-2" d="M78.12,95.08v-2h1.42V90.73h3v2.32h3.08v2H82.51v4a3.63,3.63,0,0,0,.08.79,1,1,0,0,0,.47.6,1.66,1.66,0,0,0,.93.25,2.8,2.8,0,0,0,1.6-.6v2.34l-.55.2a6.22,6.22,0,0,1-1,.26,5.44,5.44,0,0,1-1.06.1,4.08,4.08,0,0,1-2-.46,2.83,2.83,0,0,1-1.23-1.31,3.81,3.81,0,0,1-.2-1.4v-4.8Z"/><path class="cls-2" d="M85.59,95.13V93.05H87v-.16A3.22,3.22,0,0,1,88,90.4a4,4,0,0,1,2.78-1,7.63,7.63,0,0,1,1.14.08,13.84,13.84,0,0,1,1.36.29v1.9a5.19,5.19,0,0,0-1.66-.29,1.94,1.94,0,0,0-1.27.36,1.26,1.26,0,0,0-.45,1v.24h2.42v2.08H89.94v7.71H87V95.13Z"/><path class="cls-2" d="M92.57,97.94A4.9,4.9,0,0,1,94,94.24a5.74,5.74,0,0,1,7.55,0,5.43,5.43,0,0,1,0,7.38,5.74,5.74,0,0,1-7.54,0A4.92,4.92,0,0,1,92.57,97.94Zm5.23-2.85a1.91,1.91,0,0,0-1.58.79,3.24,3.24,0,0,0-.61,2.06,3.19,3.19,0,0,0,.61,2,2,2,0,0,0,3.16,0,3.2,3.2,0,0,0,.62-2,3.25,3.25,0,0,0-.62-2A1.92,1.92,0,0,0,97.8,95.09Z"/><path class="cls-2" d="M104.55,102.84V89.67h3v13.17Z"/><path class="cls-2" d="M109.36,91a1.8,1.8,0,0,1,.46-1.26,1.52,1.52,0,0,1,2.25,0,1.72,1.72,0,0,1,.46,1.22,1.31,1.31,0,0,1-.46,1,1.57,1.57,0,0,1-1.12.42,1.64,1.64,0,0,1-1.12-.4A1.19,1.19,0,0,1,109.36,91Zm.07,11.87V93h3v9.81Z"/><path class="cls-2" d="M114,97.94a4.93,4.93,0,0,1,1.45-3.7,5.2,5.2,0,0,1,3.78-1.41A5.14,5.14,0,0,1,123,94.25a5.43,5.43,0,0,1,0,7.38,5.76,5.76,0,0,1-7.55,0A5,5,0,0,1,114,97.94Zm5.23-2.85a1.91,1.91,0,0,0-1.57.79,3.24,3.24,0,0,0-.61,2.06,3.19,3.19,0,0,0,.61,2,1.9,1.9,0,0,0,1.57.78,1.92,1.92,0,0,0,1.59-.77,3.2,3.2,0,0,0,.62-2,3.25,3.25,0,0,0-.62-2A1.93,1.93,0,0,0,119.19,95.09Z"/></g></g></svg>