<svg width="167" height="167" viewBox="0 0 167 167" fill="none" xmlns="http://www.w3.org/2000/svg">
<path d="M83.2169 0C37.3627 0 0 37.3627 0 83.2169C0 129.071 37.3627 166.434 83.2169 166.434C129.071 166.434 166.434 129.071 166.434 83.2169C166.434 37.3627 129.637 0 83.2169 0ZM83.2169 155.678C43.5898 155.678 11.322 123.41 11.322 83.2169C11.322 43.5898 43.5898 11.322 83.2169 11.322C122.844 11.322 155.112 43.5898 155.112 83.2169C155.678 123.41 123.41 155.678 83.2169 155.678Z" fill="black"/>
<path d="M83.2169 20.9458C48.6848 20.9458 20.9458 48.6848 20.9458 83.217C20.9458 117.749 48.6848 145.488 83.2169 145.488C117.749 145.488 145.488 117.749 145.488 83.217C145.488 48.6848 117.749 20.9458 83.2169 20.9458ZM83.2169 134.732C54.9119 134.732 32.2678 111.522 32.2678 83.7831C32.2678 56.0441 55.478 32.8339 83.2169 32.8339C110.956 32.8339 134.166 56.0441 134.166 83.7831C134.166 111.522 111.522 134.732 83.2169 134.732Z" fill="black"/>
<path d="M83.217 43.5898C61.139 43.5898 43.0237 61.7051 43.0237 83.7831C43.0237 105.861 61.139 123.976 83.217 123.976C105.295 123.976 123.41 105.861 123.41 83.7831C123.41 61.7051 105.295 43.5898 83.217 43.5898ZM83.217 112.088C67.3661 112.088 54.3458 99.0678 54.3458 83.217C54.3458 67.3661 67.3661 54.3458 83.217 54.3458C99.0678 54.3458 112.088 67.3661 112.088 83.217C112.088 99.0678 99.0678 112.088 83.217 112.088Z" fill="black"/>
<path d="M83.2169 65.1017C73.0271 65.1017 65.1017 73.0271 65.1017 83.2169C65.1017 93.4068 73.0271 101.332 83.2169 101.332C93.4068 101.332 101.332 93.4068 101.332 83.2169C101.332 73.5932 93.4068 65.1017 83.2169 65.1017ZM83.2169 90.0102C79.2542 90.0102 76.4237 87.1796 76.4237 83.2169C76.4237 79.2542 79.2542 76.4237 83.2169 76.4237C87.1796 76.4237 90.0102 79.2542 90.0102 83.2169C90.0102 87.1796 87.1796 90.0102 83.2169 90.0102Z" fill="black"/>
</svg>
