<svg xmlns="http://www.w3.org/2000/svg" viewBox="0 0 250.37 250.37"><defs><style>.cls-1{fill:none;stroke:#f1592d;stroke-miterlimit:10;stroke-width:4px;}.cls-2{fill:#f1592d;}</style></defs><g id="Layer_2" data-name="Layer 2"><g id="Layer_1-2" data-name="Layer 1"><circle class="cls-1" cx="125.18" cy="125.18" r="123.18"/><path class="cls-2" d="M39.82,118.66a2.1,2.1,0,0,1-1.51-2q0-1.73,2.43-2.4a4.77,4.77,0,0,1-3.59-4.78,5.13,5.13,0,0,1,1.7-3.92A6.16,6.16,0,0,1,43.17,104a5.93,5.93,0,0,1,.92,0c.15,0,.46.1.95.23h5.45v2.64H48.33a4.67,4.67,0,0,1,.84,1.31,3.78,3.78,0,0,1,.27,1.45,4.53,4.53,0,0,1-1.19,3.16,6.43,6.43,0,0,1-3.38,1.8l-1,.19c-.9.24-1.34.62-1.34,1.14a.67.67,0,0,0,.28.6,2.12,2.12,0,0,0,.77.33c.32.08.91.18,1.75.31q4.89.75,4.89,4a3.71,3.71,0,0,1-1.93,3.31,10,10,0,0,1-5.31,1.2,9.78,9.78,0,0,1-4.82-1,3.13,3.13,0,0,1-1.79-2.79,2.71,2.71,0,0,1,.93-2A5.33,5.33,0,0,1,39.82,118.66Zm3.35,1.54L41.74,120c-1,.52-1.54,1.11-1.54,1.76a1.28,1.28,0,0,0,.84,1.1,4.77,4.77,0,0,0,2.19.43,5.12,5.12,0,0,0,2.18-.4c.58-.27.87-.61.87-1a1,1,0,0,0-.37-.78,3.18,3.18,0,0,0-1.25-.51Zm.08-13.31a2.16,2.16,0,0,0-1.62.7A2.44,2.44,0,0,0,41,109.3a2.59,2.59,0,0,0,.66,1.79,2,2,0,0,0,1.6.74,2.18,2.18,0,0,0,1.68-.73,2.53,2.53,0,0,0,.67-1.8,2.38,2.38,0,0,0-.67-1.71A2.26,2.26,0,0,0,43.25,106.89Z"/><path class="cls-2" d="M65,112.21H55.57a3.85,3.85,0,0,0,4.1,3.59,9.67,9.67,0,0,0,4.91-1.7v3.05A10.8,10.8,0,0,1,58.7,119,7.82,7.82,0,0,1,53.07,106a6.79,6.79,0,0,1,5.14-2.09,6.28,6.28,0,0,1,5,2A8.32,8.32,0,0,1,65,111.62Zm-6.51-5.29a2.51,2.51,0,0,0-1.83.73,3.56,3.56,0,0,0-1,2h5.48a3.32,3.32,0,0,0-.83-2A2.43,2.43,0,0,0,58.48,106.92Z"/><path class="cls-2" d="M65.74,107.24v-3h2.08v-3.43H72.2v3.43h4.53v3H72.2v6a5.1,5.1,0,0,0,.12,1.18,1.48,1.48,0,0,0,.69.88,2.41,2.41,0,0,0,1.36.38,4.14,4.14,0,0,0,2.36-.89v3.45l-.81.3a11,11,0,0,1-1.48.39,8.35,8.35,0,0,1-1.57.15,6,6,0,0,1-2.94-.69,4.12,4.12,0,0,1-1.81-1.93,5.76,5.76,0,0,1-.3-2.08v-7.1Z"/><path class="cls-2" d="M85.86,101.17a2.72,2.72,0,0,1,.67-1.87,2.17,2.17,0,0,1,1.68-.75,2.13,2.13,0,0,1,1.64.73,2.56,2.56,0,0,1,.68,1.81,2,2,0,0,1-.68,1.48,2.3,2.3,0,0,1-1.64.62,2.47,2.47,0,0,1-1.66-.58A1.8,1.8,0,0,1,85.86,101.17ZM86,118.72v-14.5h4.37v14.5Z"/><path class="cls-2" d="M93.15,118.72V104.25h4.37v2A6,6,0,0,1,102,104a4.69,4.69,0,0,1,3.52,1.35,4.94,4.94,0,0,1,1.33,3.64v9.78h-4.37v-8.48a3.75,3.75,0,0,0-.17-1.21,1.79,1.79,0,0,0-.69-1,2.06,2.06,0,0,0-1.24-.4,3.91,3.91,0,0,0-2.9,1.73v9.4Z"/><path class="cls-2" d="M129,104.81v3.57a7.51,7.51,0,0,0-1.66-.7,5.78,5.78,0,0,0-1.63-.22,4,4,0,0,0-2.95,1.16,3.94,3.94,0,0,0-1.16,2.9,3.79,3.79,0,0,0,1.16,2.88,4.14,4.14,0,0,0,3,1.11,6.8,6.8,0,0,0,1.65-.19,6.11,6.11,0,0,0,1.62-.71v3.47a9.9,9.9,0,0,1-4.24,1,7.77,7.77,0,0,1-5.65-2.09,7.15,7.15,0,0,1-2.18-5.4,7.36,7.36,0,0,1,2.23-5.46,7.62,7.62,0,0,1,5.58-2.19,10.26,10.26,0,0,1,2,.21A13.89,13.89,0,0,1,129,104.81Z"/><path class="cls-2" d="M130.79,111.48a7.31,7.31,0,0,1,2.13-5.48,7.66,7.66,0,0,1,5.56-2.08A7.57,7.57,0,0,1,144,106a8.09,8.09,0,0,1,0,10.93,8.41,8.41,0,0,1-11.1,0A7.3,7.3,0,0,1,130.79,111.48Zm7.69-4.21a2.8,2.8,0,0,0-2.32,1.16,4.91,4.91,0,0,0-.89,3,4.8,4.8,0,0,0,.89,3,2.8,2.8,0,0,0,2.32,1.16,2.84,2.84,0,0,0,2.34-1.15,4.73,4.73,0,0,0,.9-3,4.83,4.83,0,0,0-.9-3A2.81,2.81,0,0,0,138.48,107.27Z"/><path class="cls-2" d="M148.42,118.72V104.25h4.37v2a6,6,0,0,1,4.52-2.29,4.69,4.69,0,0,1,3.52,1.35,4.94,4.94,0,0,1,1.33,3.64v9.78h-4.37v-8.48a3.75,3.75,0,0,0-.17-1.21,1.79,1.79,0,0,0-.69-1,2.07,2.07,0,0,0-1.25-.4,3.91,3.91,0,0,0-2.89,1.73v9.4Z"/><path class="cls-2" d="M163.4,107.24v-3h2.08v-3.43h4.38v3.43h4.53v3h-4.53v6a5.1,5.1,0,0,0,.12,1.18,1.48,1.48,0,0,0,.69.88,2.41,2.41,0,0,0,1.36.38,4.14,4.14,0,0,0,2.36-.89v3.45l-.81.3a11,11,0,0,1-1.48.39,8.43,8.43,0,0,1-1.57.15,5.94,5.94,0,0,1-2.94-.69,4.12,4.12,0,0,1-1.81-1.93,5.76,5.76,0,0,1-.3-2.08v-7.1Z"/><path class="cls-2" d="M183.25,109.75v-.86a1.6,1.6,0,0,0-.6-1.3,2.4,2.4,0,0,0-1.56-.48,6.17,6.17,0,0,0-3.51,1.19c-.22.16-.42.31-.6.46l-.7.64v-3.67l1-.59a10.08,10.08,0,0,1,4.78-1.22,6,6,0,0,1,4,1.28,4.19,4.19,0,0,1,1.53,3.37v5.83a2.88,2.88,0,0,0,.14,1.09.58.58,0,0,0,.56.29,2.31,2.31,0,0,0,1.21-.52l-.38,2.84a10.07,10.07,0,0,1-3.51.94,3.17,3.17,0,0,1-1.43-.27,2.16,2.16,0,0,1-.91-1,6.69,6.69,0,0,1-3.76,1.24,4.51,4.51,0,0,1-3.06-1.05,3.48,3.48,0,0,1-1.2-2.75q0-2.59,2.83-3.84a19,19,0,0,1,2.16-.81l.89-.21,1.11-.33Zm0,5.51v-3.05a9.54,9.54,0,0,0-2.91,1.12,1.82,1.82,0,0,0-.87,1.53,1.4,1.4,0,0,0,.44,1,1.43,1.43,0,0,0,1.06.43,2.68,2.68,0,0,0,1.17-.28A4.32,4.32,0,0,0,183.25,115.26Z"/><path class="cls-2" d="M202.17,104.81v3.57a7.32,7.32,0,0,0-1.66-.7,5.78,5.78,0,0,0-1.63-.22,4,4,0,0,0-2.94,1.16,3.9,3.9,0,0,0-1.16,2.9,3.75,3.75,0,0,0,1.16,2.88,4.11,4.11,0,0,0,3,1.11,6.78,6.78,0,0,0,1.64-.19,6.11,6.11,0,0,0,1.62-.71v3.47a9.9,9.9,0,0,1-4.24,1,7.78,7.78,0,0,1-5.65-2.09,7.15,7.15,0,0,1-2.18-5.4,7.4,7.4,0,0,1,2.23-5.46,7.64,7.64,0,0,1,5.58-2.19,10.19,10.19,0,0,1,2.05.21A13.89,13.89,0,0,1,202.17,104.81Z"/><path class="cls-2" d="M202.93,107.24v-3H205v-3.43h4.37v3.43h4.54v3h-4.54v6a5.1,5.1,0,0,0,.12,1.18,1.53,1.53,0,0,0,.7.88,2.41,2.41,0,0,0,1.36.38,4.17,4.17,0,0,0,2.36-.89v3.45l-.81.3a10.81,10.81,0,0,1-1.49.39,8.24,8.24,0,0,1-1.56.15,6,6,0,0,1-2.95-.69,4.1,4.1,0,0,1-1.8-1.93,5.76,5.76,0,0,1-.3-2.08v-7.1Z"/><path class="cls-2" d="M71.75,136.65h4.78l2.38,6.77c0,.18.11.43.17.75a3.94,3.94,0,0,1,.1.87,7.23,7.23,0,0,1,.13-.92c.06-.23.13-.47.22-.72L82,136.65h2.81l2.48,6.75a7,7,0,0,1,.27.83,3.12,3.12,0,0,1,.09.81,3.18,3.18,0,0,1,.08-.83,7.21,7.21,0,0,1,.24-.79l2.35-6.77h4.78l-5.92,14.47H86.6l-2.67-7q-.27-.72-.39-1.17a4.15,4.15,0,0,1-.12-1.07,4.8,4.8,0,0,1-.17,1.38c-.14.36-.25.65-.32.86l-2.73,7H77.61Z"/><path class="cls-2" d="M95.92,133.57a2.72,2.72,0,0,1,.67-1.87,2.23,2.23,0,0,1,3.32,0,2.56,2.56,0,0,1,.68,1.81,2,2,0,0,1-.68,1.48,2.32,2.32,0,0,1-1.65.62A2.49,2.49,0,0,1,96.6,135,1.82,1.82,0,0,1,95.92,133.57Zm.1,17.55v-14.5h4.38v14.5Z"/><path class="cls-2" d="M101.69,139.64v-3h2.08v-3.43h4.38v3.43h4.53v3h-4.53v6a5.1,5.1,0,0,0,.12,1.18,1.48,1.48,0,0,0,.69.88,2.41,2.41,0,0,0,1.36.38,4.14,4.14,0,0,0,2.36-.89v3.46l-.81.29a10.66,10.66,0,0,1-1.48.39,8.35,8.35,0,0,1-1.57.15,6,6,0,0,1-2.94-.69,4.12,4.12,0,0,1-1.81-1.93,5.76,5.76,0,0,1-.3-2.08v-7.1Z"/><path class="cls-2" d="M114.06,151.12V131.65h4.37v6.94a5.78,5.78,0,0,1,4.43-2.3,4.59,4.59,0,0,1,3.51,1.44,5.19,5.19,0,0,1,1.35,3.72v9.67h-4.37v-8a5.49,5.49,0,0,0,0-.58c0-.19,0-.46-.11-.82a2,2,0,0,0-.73-1.19,2.16,2.16,0,0,0-1.37-.43,3.22,3.22,0,0,0-2.68,1.75v9.29Z"/><path class="cls-2" d="M138.31,151.12V136.65h4.37v1.91a5.92,5.92,0,0,1,4.44-2.27,4.43,4.43,0,0,1,4.26,2.79,5.56,5.56,0,0,1,4.72-2.79,4.79,4.79,0,0,1,3.63,1.4,5.23,5.23,0,0,1,1.34,3.79v9.64h-4.38v-8.34q0-2.76-2.16-2.76a3.56,3.56,0,0,0-2.67,1.65v9.45h-4.37V143a8.31,8.31,0,0,0-.11-1.45,1.78,1.78,0,0,0-.68-1,1.91,1.91,0,0,0-1.24-.46,3.77,3.77,0,0,0-2.78,1.63v9.47Z"/><path class="cls-2" d="M177.27,144.61h-9.43A3.87,3.87,0,0,0,172,148.2a9.67,9.67,0,0,0,4.91-1.7v3.05a10.8,10.8,0,0,1-5.88,1.89,7.81,7.81,0,0,1-5.63-13.05,6.8,6.8,0,0,1,5.14-2.1,6.28,6.28,0,0,1,5,2.06,8.32,8.32,0,0,1,1.81,5.67Zm-6.51-5.29a2.55,2.55,0,0,0-1.84.73,3.69,3.69,0,0,0-1,2h5.49a3.32,3.32,0,0,0-.83-2A2.43,2.43,0,0,0,170.76,139.32Z"/></g></g></svg>