<svg xmlns="http://www.w3.org/2000/svg" viewBox="0 0 171.46 170.6"><defs><style>.cls-1{fill:#f15b2e;stroke:#f15b2e;stroke-miterlimit:10;stroke-width:4px;}.cls-2{fill:#fcfaf0;}</style></defs><g id="Layer_2" data-name="Layer 2"><g id="Layer_1-2" data-name="Layer 1"><ellipse class="cls-1" cx="85.73" cy="85.3" rx="83.73" ry="83.3"/><path class="cls-2" d="M27.71,80.89a1.44,1.44,0,0,1-1-1.37q0-1.17,1.65-1.62a3.24,3.24,0,0,1-2.44-3.24A3.44,3.44,0,0,1,27.05,72,4.16,4.16,0,0,1,30,71c.31,0,.52,0,.62,0l.64.16H35v1.79H33.49a3,3,0,0,1,.57.89,2.54,2.54,0,0,1,.18,1,3.09,3.09,0,0,1-.8,2.14,4.42,4.42,0,0,1-2.3,1.22l-.68.13c-.61.16-.91.41-.91.77a.47.47,0,0,0,.19.41,1.69,1.69,0,0,0,.52.22c.22,0,.62.12,1.19.21,2.22.34,3.33,1.24,3.33,2.72a2.5,2.5,0,0,1-1.32,2.23,6.8,6.8,0,0,1-3.6.82,6.66,6.66,0,0,1-3.28-.7,2.1,2.1,0,0,1-1.22-1.88A1.83,1.83,0,0,1,26,81.72,3.6,3.6,0,0,1,27.71,80.89Zm2.28,1-1-.16c-.69.35-1,.74-1,1.18a.85.85,0,0,0,.57.75A3.17,3.17,0,0,0,30,84a3.58,3.58,0,0,0,1.49-.27c.39-.18.59-.41.59-.69a.66.66,0,0,0-.25-.53,2.23,2.23,0,0,0-.85-.35Zm.05-9a1.45,1.45,0,0,0-1.1.47,1.65,1.65,0,0,0-.44,1.15A1.77,1.77,0,0,0,29,75.77a1.42,1.42,0,0,0,1.09.5,1.5,1.5,0,0,0,1.14-.49,1.77,1.77,0,0,0,.46-1.23,1.63,1.63,0,0,0-.46-1.15A1.55,1.55,0,0,0,30,72.93Z"/><path class="cls-2" d="M44.81,76.53h-6.4A2.6,2.6,0,0,0,41.2,79a6.63,6.63,0,0,0,3.34-1.15v2.07a7.4,7.4,0,0,1-4,1.28,5.28,5.28,0,0,1-3.83-8.83,4.67,4.67,0,0,1,3.5-1.42,4.29,4.29,0,0,1,3.37,1.39,5.58,5.58,0,0,1,1.23,3.83ZM40.39,73a1.74,1.74,0,0,0-1.25.49,2.48,2.48,0,0,0-.68,1.35h3.73a2.23,2.23,0,0,0-.56-1.36A1.64,1.64,0,0,0,40.39,73Z"/><path class="cls-2" d="M45.33,73.17v-2h1.41V68.82h3v2.32H52.8v2H49.71v4a3.07,3.07,0,0,0,.09.79,1,1,0,0,0,.47.6,1.63,1.63,0,0,0,.92.26,2.85,2.85,0,0,0,1.61-.61v2.34l-.55.2a6.5,6.5,0,0,1-1,.26,5.55,5.55,0,0,1-1.07.11,4.11,4.11,0,0,1-2-.47,2.83,2.83,0,0,1-1.23-1.31,4,4,0,0,1-.2-1.4v-4.8Z"/><path class="cls-2" d="M59,69.06a1.8,1.8,0,0,1,.46-1.26,1.45,1.45,0,0,1,1.14-.51,1.47,1.47,0,0,1,1.12.49A1.75,1.75,0,0,1,62.17,69a1.34,1.34,0,0,1-.45,1,1.61,1.61,0,0,1-1.12.42A1.71,1.71,0,0,1,59.47,70,1.25,1.25,0,0,1,59,69.06Zm.07,11.87V71.12h3v9.81Z"/><path class="cls-2" d="M64,80.93V71.14h3v1.35A4.06,4.06,0,0,1,70,70.94a3.19,3.19,0,0,1,2.39.91,3.33,3.33,0,0,1,.91,2.47v6.61h-3V75.19a2.47,2.47,0,0,0-.11-.82,1.21,1.21,0,0,0-.47-.7,1.37,1.37,0,0,0-.85-.27,2.65,2.65,0,0,0-2,1.17v6.36Z"/><path class="cls-2" d="M88.35,71.52v2.41a5.68,5.68,0,0,0-1.13-.47,4,4,0,0,0-1.11-.15,2.68,2.68,0,0,0-2,.79,2.62,2.62,0,0,0-.79,2,2.55,2.55,0,0,0,.79,2,2.79,2.79,0,0,0,2,.74,4.75,4.75,0,0,0,1.12-.12,4.23,4.23,0,0,0,1.11-.48v2.34a6.67,6.67,0,0,1-2.89.66,5.3,5.3,0,0,1-3.84-1.42,4.81,4.81,0,0,1-1.48-3.65,5,5,0,0,1,1.52-3.69,5.2,5.2,0,0,1,3.79-1.49,6.57,6.57,0,0,1,1.39.15A8.89,8.89,0,0,1,88.35,71.52Z"/><path class="cls-2" d="M89.54,76A4.9,4.9,0,0,1,91,72.33a5.74,5.74,0,0,1,7.55,0,5.43,5.43,0,0,1,0,7.38,5.71,5.71,0,0,1-7.54,0A4.92,4.92,0,0,1,89.54,76Zm5.23-2.84a1.9,1.9,0,0,0-1.58.78A3.3,3.3,0,0,0,92.58,76a3.25,3.25,0,0,0,.61,2,1.91,1.91,0,0,0,1.58.79,1.93,1.93,0,0,0,1.59-.78A3.2,3.2,0,0,0,97,76a3.25,3.25,0,0,0-.61-2A1.92,1.92,0,0,0,94.77,73.19Z"/><path class="cls-2" d="M101.52,80.93V71.14h3v1.35a4.06,4.06,0,0,1,3.07-1.55,3.2,3.2,0,0,1,2.39.91,3.36,3.36,0,0,1,.9,2.47v6.61h-3V75.19a2.76,2.76,0,0,0-.11-.82,1.26,1.26,0,0,0-.47-.7,1.41,1.41,0,0,0-.85-.27,2.63,2.63,0,0,0-2,1.17v6.36Z"/><path class="cls-2" d="M111.71,73.17v-2h1.41V68.82h3v2.32h3.09v2h-3.09v4a3.07,3.07,0,0,0,.09.79,1,1,0,0,0,.47.6,1.63,1.63,0,0,0,.92.26,2.85,2.85,0,0,0,1.61-.61v2.34l-.55.2a6.5,6.5,0,0,1-1,.26,5.55,5.55,0,0,1-1.07.11,4.11,4.11,0,0,1-2-.47,2.83,2.83,0,0,1-1.23-1.31,4,4,0,0,1-.2-1.4v-4.8Z"/><path class="cls-2" d="M125.2,74.87v-.59a1.09,1.09,0,0,0-.41-.88,1.67,1.67,0,0,0-1.06-.32,4.22,4.22,0,0,0-2.39.8l-.4.31-.48.44V72.14l.66-.4a6.85,6.85,0,0,1,3.25-.82,4.12,4.12,0,0,1,2.73.87,2.81,2.81,0,0,1,1,2.27v4a1.88,1.88,0,0,0,.1.73.4.4,0,0,0,.38.2,1.59,1.59,0,0,0,.83-.35l-.26,1.92a7.14,7.14,0,0,1-2.39.64,2.17,2.17,0,0,1-1-.19,1.51,1.51,0,0,1-.62-.65,4.56,4.56,0,0,1-2.56.84,3,3,0,0,1-2.07-.72,2.32,2.32,0,0,1-.82-1.86A2.74,2.74,0,0,1,121.67,76a12.54,12.54,0,0,1,1.47-.55l.61-.14.75-.22Zm0,3.72V76.53a6.6,6.6,0,0,0-2,.75,1.24,1.24,0,0,0-.59,1,1,1,0,0,0,.3.71,1,1,0,0,0,.72.29,1.76,1.76,0,0,0,.79-.19A3,3,0,0,0,125.2,78.59Z"/><path class="cls-2" d="M138.06,71.52v2.41a5.45,5.45,0,0,0-1.13-.47,4,4,0,0,0-1.11-.15,2.7,2.7,0,0,0-2,.79,2.66,2.66,0,0,0-.79,2,2.59,2.59,0,0,0,.79,2,2.81,2.81,0,0,0,2,.74,4.75,4.75,0,0,0,1.12-.12,4,4,0,0,0,1.1-.48v2.34a6.66,6.66,0,0,1-2.88.66,5.32,5.32,0,0,1-3.85-1.42,4.84,4.84,0,0,1-1.47-3.65,5,5,0,0,1,1.51-3.69,5.2,5.2,0,0,1,3.79-1.49,6.66,6.66,0,0,1,1.4.15A9.08,9.08,0,0,1,138.06,71.52Z"/><path class="cls-2" d="M138.58,73.17v-2H140V68.82h3v2.32H146v2H143v4A3.63,3.63,0,0,0,143,78a1,1,0,0,0,.48.6,1.61,1.61,0,0,0,.92.26,2.82,2.82,0,0,0,1.6-.61v2.34l-.55.2a6,6,0,0,1-1,.26,5.45,5.45,0,0,1-1.06.11,4.08,4.08,0,0,1-2-.47,2.83,2.83,0,0,1-1.23-1.31A4,4,0,0,1,140,78v-4.8Z"/><path class="cls-2" d="M49.41,93.05h3.25l1.62,4.58c0,.12.07.29.11.5a2.7,2.7,0,0,1,.07.6,3.79,3.79,0,0,1,.09-.62c0-.16.09-.33.15-.5l1.69-4.56h1.9L60,97.61c.09.24.15.42.19.57a2.79,2.79,0,0,1,0,.55,2.26,2.26,0,0,1,.06-.57c0-.14.09-.32.16-.53L62,93.05h3.25l-4,9.79H59.5l-1.81-4.71c-.12-.33-.21-.6-.27-.8a3,3,0,0,1-.08-.72,3.38,3.38,0,0,1-.11.93c-.1.24-.17.44-.22.59l-1.85,4.71H53.39Z"/><path class="cls-2" d="M65.84,91a1.84,1.84,0,0,1,.45-1.26,1.48,1.48,0,0,1,1.14-.51,1.46,1.46,0,0,1,1.12.49A1.72,1.72,0,0,1,69,90.91a1.31,1.31,0,0,1-.46,1,1.59,1.59,0,0,1-1.12.42,1.68,1.68,0,0,1-1.13-.4A1.21,1.21,0,0,1,65.84,91Zm.07,11.87V93h3v9.81Z"/><path class="cls-2" d="M69.76,95.08v-2h1.42V90.73h3v2.32h3.08v2H74.15v4a3.63,3.63,0,0,0,.08.79,1,1,0,0,0,.47.6,1.66,1.66,0,0,0,.93.25,2.8,2.8,0,0,0,1.6-.6v2.34l-.55.2a6.22,6.22,0,0,1-1,.26,5.44,5.44,0,0,1-1.06.1,4.08,4.08,0,0,1-2-.46,2.83,2.83,0,0,1-1.23-1.31,3.81,3.81,0,0,1-.2-1.4v-4.8Z"/><path class="cls-2" d="M78.17,102.84V89.67h3v4.69a3.94,3.94,0,0,1,3-1.55,3.13,3.13,0,0,1,2.39,1,3.54,3.54,0,0,1,.92,2.52v6.54h-3V97.41a2.55,2.55,0,0,0,0-.39c0-.13,0-.31-.07-.56a1.3,1.3,0,0,0-.5-.8,1.49,1.49,0,0,0-.93-.29,2.19,2.19,0,0,0-1.82,1.18v6.29Z"/><path class="cls-2" d="M94.65,102.84V93.05h3v1.3a4,4,0,0,1,3-1.54,3,3,0,0,1,2.89,1.88,3.81,3.81,0,0,1,3.21-1.88,3.29,3.29,0,0,1,2.47.94,3.52,3.52,0,0,1,.91,2.57v6.52h-3V97.19q0-1.86-1.47-1.86a2.41,2.41,0,0,0-1.82,1.12v6.39h-3V97.33a6.49,6.49,0,0,0-.07-1,1.26,1.26,0,0,0-.46-.71,1.37,1.37,0,0,0-.85-.31,2.61,2.61,0,0,0-1.89,1.1v6.41Z"/><path class="cls-2" d="M121.13,98.44h-6.4a2.74,2.74,0,0,0,.88,1.78,2.78,2.78,0,0,0,1.91.64,6.63,6.63,0,0,0,3.34-1.15v2.07a7.41,7.41,0,0,1-4,1.27,4.9,4.9,0,0,1-5.2-5.16A5,5,0,0,1,113,94.23a4.63,4.63,0,0,1,3.49-1.42,4.26,4.26,0,0,1,3.38,1.39A5.58,5.58,0,0,1,121.13,98Zm-4.42-3.58a1.73,1.73,0,0,0-1.25.49,2.48,2.48,0,0,0-.68,1.35h3.73a2.23,2.23,0,0,0-.56-1.36A1.66,1.66,0,0,0,116.71,94.86Z"/></g></g></svg>