<svg width="167" height="167" viewBox="0 0 167 167" fill="none" xmlns="http://www.w3.org/2000/svg">
<path d="M17.0036 32.7927L18.2182 32.1854C26.72 27.9345 36.4364 23.6836 47.3673 24.8982C54.6545 25.5054 61.3345 29.7563 66.8 34.0072L68.0145 34.6145C71.6582 37.0436 75.3018 40.08 78.9454 41.2945C84.4109 43.1163 90.4836 39.4727 97.7709 35.2218C103.844 31.5782 110.524 28.5418 117.811 27.9345C125.705 27.3272 131.778 29.7563 137.851 31.5782L139.673 32.1854C143.316 33.4 147.567 35.2218 151.211 35.8291C145.745 27.9345 139.065 21.2545 131.171 15.7891C126.313 13.9672 122.669 12.7527 118.418 13.36C112.953 13.9672 108.095 15.7891 103.844 18.2182C98.3782 21.8618 90.4836 27.3272 81.3745 27.3272C78.9454 27.3272 77.1236 26.72 74.6945 26.1127C68.6218 24.2909 63.7636 20.6472 59.5127 17.6109L58.9054 17.0036C54.6545 13.9672 49.7964 10.9309 45.5454 10.3236C44.3309 10.3236 43.7236 10.3236 42.5091 10.3236C32.7927 15.7891 24.2909 23.6836 17.0036 32.7927Z" fill="black"/>
<path d="M151.211 129.349C145.138 128.742 140.28 126.92 135.422 125.098L132.993 123.884C127.527 122.062 123.884 120.24 119.025 120.847C113.56 121.454 108.702 123.276 104.451 125.705C98.9854 129.349 91.0909 134.814 81.9818 134.814C79.5527 134.814 77.7309 134.207 75.3018 133.6C69.2291 131.778 64.3709 128.134 60.12 125.098L58.9054 124.491C54.6545 121.454 49.7963 118.418 45.5454 117.811C38.2582 117.204 30.9709 120.847 23.6836 123.884L20.6473 125.098C18.2182 126.313 15.7891 126.92 13.36 128.134C15.7891 131.778 18.2182 134.814 20.6473 137.851C28.5418 134.207 37.0436 130.564 46.76 131.778C54.0473 132.385 60.7273 136.636 66.1927 140.887L66.8 141.494C70.4436 144.531 74.0873 146.96 77.7309 148.174C83.1963 149.996 89.2691 146.353 96.5563 142.102C102.629 138.458 109.309 135.422 116.596 134.814C124.491 134.207 130.564 136.636 136.636 138.458L139.673 139.673C140.887 140.28 142.102 140.887 143.316 140.887C146.96 137.244 149.996 133.6 152.425 129.349C152.425 129.349 151.818 129.349 151.211 129.349Z" fill="black"/>
<path d="M18.2182 86.2327C26.72 81.9818 36.4364 77.7309 47.3673 78.9455C54.6545 79.5527 61.3345 83.8036 66.8 88.0545L67.4073 88.6618C71.0509 91.6982 74.6945 94.1273 78.3382 95.3418C83.8036 97.1636 89.8764 93.52 97.1636 89.2691C103.236 85.6255 109.916 82.5891 117.204 81.9818C125.098 81.3745 131.171 83.8036 137.244 85.6255L139.673 86.2327C143.924 88.0545 148.175 89.2691 152.425 89.8764C157.891 90.4836 162.749 89.8764 166.393 88.6618C166.393 86.84 166.393 85.0182 166.393 83.8036C166.393 80.7673 166.393 78.3382 165.785 75.3018C161.535 76.5164 156.069 76.5164 150.604 75.9091C144.531 75.3018 139.673 73.48 134.815 71.6582L132.385 70.4436C126.92 68.6218 123.276 66.8 118.418 67.4073C112.953 68.0145 108.095 69.8364 103.844 72.2655C97.7709 75.9091 90.4836 81.3745 81.3745 81.3745C78.9454 81.3745 76.5164 80.7673 74.6945 80.16C68.6218 78.3382 63.7636 74.6945 59.5127 71.6582L58.9054 71.0509C54.6545 68.0145 49.7964 64.9782 45.5455 64.3709C38.2582 63.7636 30.9709 67.4073 23.6836 70.4436L20.6473 71.6582C13.9673 74.6945 7.28727 76.5164 0 77.1236C0 78.9455 0 80.7673 0 82.5891C0 85.6255 0 88.0545 0.607273 91.0909C6.07273 90.4836 10.9309 89.2691 15.7891 86.84L18.2182 86.2327Z" fill="black"/>
<path d="M151.211 102.629C145.138 102.022 140.28 100.2 135.422 98.3782L132.993 97.1636C127.527 95.3418 123.884 93.52 119.025 94.1272C113.56 94.7345 108.702 96.5563 104.451 98.9854C98.9855 102.629 91.0909 108.095 81.9818 108.095C79.5527 108.095 77.7309 107.487 75.3018 106.88C69.2291 105.058 64.3709 101.415 60.12 98.3782L59.5127 97.7709C55.2618 94.7345 50.4036 91.6982 46.1527 91.0909C38.8655 90.4836 31.5782 94.1272 24.2909 97.1636L21.2546 98.3782C15.7891 100.807 9.1091 102.629 3.03638 103.236C4.25092 107.487 5.46547 111.738 7.28729 115.989C10.3236 115.382 12.7527 114.167 15.7891 112.953H18.2182C26.72 108.702 36.4364 104.451 47.3673 105.665C54.6546 106.273 61.3346 110.524 66.8 114.775L68.0146 115.382C71.6582 117.811 75.3018 120.847 78.9455 122.062C84.4109 123.884 90.4837 120.24 97.7709 115.989C103.844 112.345 110.524 109.309 117.811 108.702C125.705 108.095 131.778 110.524 137.851 112.345L140.28 112.953C144.531 114.775 148.782 115.989 153.033 116.596C156.069 116.596 158.498 116.596 160.32 116.596C162.142 111.738 163.964 107.487 165.178 102.022C160.32 103.236 156.069 103.236 151.211 102.629Z" fill="black"/>
<path d="M119.025 147.567C113.56 148.175 108.702 149.996 104.451 152.425C98.3782 156.069 91.0909 161.535 81.9818 161.535C79.5527 161.535 77.1236 160.927 75.3018 160.32C69.2291 158.498 64.3709 154.855 60.12 151.818H58.9055C54.6546 148.782 49.7964 145.745 45.5455 145.138C40.6873 144.531 35.2218 146.353 30.3636 148.175C44.9382 159.713 63.1564 167 83.1964 167C102.022 167 119.025 160.927 132.385 150.604C127.527 148.782 123.884 146.96 119.025 147.567Z" fill="black"/>
<path d="M135.422 44.3309L132.993 43.1164C127.527 41.2946 123.884 39.4728 119.025 40.08C113.56 40.6873 108.702 42.5091 104.451 44.9382C98.9854 48.5818 91.0909 54.0473 81.9818 54.0473C79.5527 54.0473 77.7309 53.44 75.3018 52.8328C69.2291 51.0109 64.3709 47.3673 60.12 44.3309H58.9054C54.6545 41.2946 49.7963 38.2582 45.5454 37.6509C38.2582 37.0437 30.9709 40.6873 23.6836 43.7237L20.6473 44.9382C16.3963 47.3673 12.1454 48.5818 7.28726 49.7964C4.85817 54.6546 3.64362 59.5128 2.42908 64.3709C7.28726 63.7637 11.5382 62.5491 15.7891 60.12L18.2182 59.5128C26.72 55.2618 36.4364 51.0109 47.3673 52.2255C54.6545 52.8328 61.3345 57.0837 66.8 60.7273L67.4073 61.3346C71.0509 64.3709 74.6945 66.8 78.3382 68.0146C84.4109 69.8364 89.8764 66.1928 97.1636 61.9418C103.236 58.2982 109.916 55.2618 117.204 54.6546C125.098 54.0473 131.171 56.4764 137.244 58.2982L139.673 58.9055C143.924 60.7273 148.175 61.9418 152.425 62.5491C156.676 63.1564 160.927 62.5491 163.964 61.9418C162.749 57.0837 160.927 52.8328 159.105 48.5818C156.676 48.5818 153.64 48.5818 151.211 48.5818C145.138 47.9746 140.28 46.1528 135.422 44.3309Z" fill="black"/>
<path d="M66.8 6.68L67.4073 7.28727C71.0509 10.3236 74.6945 12.7527 78.3382 13.9673C83.8036 15.7891 89.8764 12.1455 97.1636 7.89455C99.5927 6.07273 102.629 4.85818 105.665 3.64364C98.9854 1.21455 91.0909 0 83.1964 0C75.3018 0 68.0145 1.21455 60.7273 3.03636C63.1564 4.25091 64.9782 5.46545 66.8 6.68Z" fill="black"/>
</svg>
