<svg width="167" height="167" viewBox="0 0 167 167" fill="none" xmlns="http://www.w3.org/2000/svg">
<path d="M167 83.2188L152.943 97.2761L160.253 115.269L142.259 123.141V142.259H123.141L115.269 160.253L97.2761 152.943L83.2188 167L69.7239 152.943L51.7306 160.253L43.8586 142.259H24.1785V123.141L6.18518 115.269L13.4949 97.2761L0 83.2188L13.4949 69.7239L6.18518 51.7306L24.1785 43.8586V24.1785H43.8586L51.7306 6.18518L69.7239 13.4949L83.2188 0L97.2761 13.4949L115.269 6.18518L123.141 24.1785H142.259V43.8586L160.253 51.7306L152.943 69.7239L167 83.2188Z" fill="black"/>
</svg>
